<svg width="16" height="16" viewBox="0 0 16 16" fill="none" xmlns="http://www.w3.org/2000/svg">
  <g clip-path="url(#clip0_64166_6)">
    <rect width="16" height="16" fill="white" />
    <path d="M2 8C1.5 8.5 1 9.12676 1 10C1 10.8732 1.50294 11.282 2 12C2.62873 12.9082 3.09183 13.3713 4 14C4.71797 14.4971 5.12676 15 6 15C6.87324 15 7 15 8 14" stroke="black" />
    <path d="M3 7C2.60948 7.78105 2 8.12676 2 9C2 9.87324 2.50294 10.282 3 11C3.62873 11.9082 4.09183 12.3713 5 13C5.71797 13.4971 6.12676 14 7 14C7.87324 14 8.47606 13.6986 9 13" stroke="black" />
    <path d="M8 14C8.39052 13.219 9 12.8732 9 12C9 11.1268 8.49706 10.718 8 10C7.37127 9.09183 6.90817 8.62873 6 8C5.28203 7.50294 4.87324 7 4 7C3.12676 7 2.52394 7.30141 2 8" stroke="black" />
    <line x1="1.56258" y1="8.59595" x2="10.7035" y2="-1.27538" stroke="black" />
    <line x1="7.48287" y1="14.509" x2="16.7947" y2="4.79874" stroke="black" />
    <line x1="9" y1="0.5" x2="16" y2="0.5" stroke="black" />
    <line x1="15.5" y1="6" x2="15.5" y2="1" stroke="black" />
    <path d="M8.99988 0.5C8.99988 0.5 8.7244 2.06336 8.99988 3C9.46739 4.58953 10.4452 5.42722 11.9999 6C13.2824 6.47252 15.4999 6 15.4999 6" stroke="black" />
    <path d="M13.0555 0C13.0555 0 12.9307 0.821379 13.0555 1.31348C13.2672 2.14861 13.7102 2.58873 14.4145 2.88966C14.9955 3.13792 16 2.88966 16 2.88966" stroke="black" />
    <line x1="14.5" y1="1" x2="14.5" y2="3" stroke="black" />
    <line x1="13" y1="1.5" x2="14" y2="1.5" stroke="black" />
  </g>
  <defs>
    <clipPath id="clip0_64166_6">
      <rect width="16" height="16" fill="white" />
    </clipPath>
  </defs>
</svg>
